<?xml version="1.0" standalone="no"?>
<!DOCTYPE svg PUBLIC "-//W3C//DTD SVG 20010904//EN"
 "http://www.w3.org/TR/2001/REC-SVG-20010904/DTD/svg10.dtd">
<svg version="1.0" xmlns="http://www.w3.org/2000/svg"
 width="512.000000pt" height="512.000000pt" viewBox="0 0 512.000000 512.000000"
 preserveAspectRatio="xMidYMid meet">
<metadata>
Created by potrace 1.14, written by Peter Selinger 2001-2017
</metadata>
<g transform="translate(0.000000,512.000000) scale(0.100000,-0.100000)"
fill="#000000" stroke="none">
<path d="M2310 5020 c-318 -48 -577 -159 -830 -352 -98 -76 -277 -262 -352
-368 -124 -175 -239 -427 -282 -620 -14 -62 -18 -84 -36 -210 -9 -58 -6 -401
3 -416 2 -5 8 -31 11 -59 27 -207 137 -488 265 -680 68 -101 129 -175 247
-297 219 -228 344 -456 398 -726 22 -108 24 -140 25 -369 l1 -203 800 0 800 0
1 188 c0 103 3 214 5 247 6 71 31 202 46 245 3 8 18 49 32 90 67 188 171 347
366 555 265 283 415 570 481 917 23 123 34 405 19 508 -4 30 -11 75 -15 100
-16 114 -68 295 -110 385 -7 17 -23 52 -35 79 -32 76 -122 223 -188 309 -274
357 -664 595 -1102 672 -140 25 -405 27 -550 5z m470 -154 c544 -86 989 -411
1220 -891 43 -88 102 -249 114 -309 37 -178 40 -206 40 -376 1 -212 -14 -316
-75 -507 -74 -234 -201 -438 -399 -643 -152 -158 -255 -302 -334 -471 -42 -88
-90 -218 -100 -271 -2 -13 -9 -45 -15 -73 -13 -57 -19 -95 -20 -112 -1 -10
-49 -13 -206 -13 l-205 0 0 240 0 240 -80 0 -80 0 0 -240 0 -240 -80 0 -80 0
0 240 0 240 -80 0 -80 0 0 -240 0 -240 -203 0 -203 0 -18 98 c-58 318 -198
576 -456 841 -25 25 -70 75 -100 111 -30 36 -57 67 -60 70 -21 19 -119 182
-160 265 -62 129 -121 304 -135 407 -2 18 -8 58 -12 88 -14 100 -8 378 11 470
10 47 19 94 21 105 8 37 53 180 70 220 118 281 294 507 538 691 55 42 108 79
116 82 9 3 36 18 61 33 136 83 404 170 575 186 33 3 62 7 64 10 6 4 314 -5
351 -11z m420 -3906 l0 -80 -640 0 -640 0 0 80 0 80 640 0 640 0 0 -80z"/>
<path d="M2215 4578 c-26 -79 -50 -148 -54 -155 -4 -8 -49 10 -144 58 -75 38
-142 69 -147 69 -14 0 -420 -405 -420 -418 0 -6 28 -66 62 -134 35 -67 66
-131 70 -140 6 -14 -17 -25 -148 -68 l-154 -52 0 -298 0 -299 190 -62 c105
-34 190 -66 190 -71 0 -20 -122 -249 -145 -272 -14 -14 -25 -28 -25 -31 0 -11
369 -375 379 -375 6 0 50 20 98 44 49 25 111 56 140 70 l51 26 52 -155 52
-155 298 0 298 0 50 151 c28 83 52 153 55 155 2 2 65 -28 140 -66 75 -39 141
-70 147 -70 14 0 420 405 420 418 0 6 -28 66 -62 134 -35 67 -66 131 -70 140
-6 14 17 25 148 68 l154 52 0 298 0 299 -190 63 c-104 34 -190 66 -190 70 0
13 118 244 132 259 45 48 53 35 -146 234 -102 102 -190 185 -195 185 -6 0 -66
-28 -133 -63 -68 -35 -131 -66 -140 -69 -14 -6 -25 18 -68 148 l-52 154 -298
0 -298 0 -47 -142z"/>
<path d="M2320 1920 l0 -80 80 0 80 0 0 80 0 80 -80 0 -80 0 0 -80z"/>
<path d="M2640 1920 l0 -80 80 0 80 0 0 80 0 80 -80 0 -80 0 0 -80z"/>
<path d="M2004 511 c20 -164 139 -308 314 -381 84 -35 114 -41 230 -45 172 -6
319 50 433 164 84 85 123 159 135 263 l6 48 -80 0 -80 0 -6 -44 c-10 -62 -72
-155 -131 -194 -78 -52 -150 -75 -245 -78 -213 -6 -390 110 -416 275 l-7 41
-79 0 -80 0 6 -49z"/>
</g>
</svg>
